<svg width="16" height="16" viewBox="0 0 16 16" fill="none" xmlns="http://www.w3.org/2000/svg">
<path d="M14.5606 3.7425L12.2575 1.43937C12.1185 1.29964 11.9533 1.18885 11.7712 1.11343C11.5891 1.03802 11.3939 0.999459 11.1969 0.999998H3C2.46957 0.999998 1.96086 1.21071 1.58579 1.58578C1.21071 1.96086 1 2.46956 1 3V13C1 13.5304 1.21071 14.0391 1.58579 14.4142C1.96086 14.7893 2.46957 15 3 15H13C13.5304 15 14.0391 14.7893 14.4142 14.4142C14.7893 14.0391 15 13.5304 15 13V4.80312C15.0005 4.60606 14.962 4.41085 14.8866 4.22879C14.8111 4.04674 14.7004 3.88145 14.5606 3.7425ZM3.75 3.5H9.25C9.3163 3.5 9.37989 3.52634 9.42678 3.57322C9.47366 3.62011 9.5 3.68369 9.5 3.75V5.25C9.5 5.3163 9.47366 5.37989 9.42678 5.42677C9.37989 5.47366 9.3163 5.5 9.25 5.5H3.75C3.6837 5.5 3.62011 5.47366 3.57322 5.42677C3.52634 5.37989 3.5 5.3163 3.5 5.25V3.75C3.5 3.68369 3.52634 3.62011 3.57322 3.57322C3.62011 3.52634 3.6837 3.5 3.75 3.5ZM8.11719 13.4972C7.6133 13.5208 7.11403 13.3915 6.685 13.1262C6.25597 12.8609 5.91724 12.472 5.71332 12.0106C5.50939 11.5492 5.44982 11.0369 5.54242 10.541C5.63503 10.0451 5.87547 9.58887 6.23217 9.23217C6.58887 8.87547 7.04513 8.63502 7.54101 8.54242C8.03688 8.44982 8.54917 8.50939 9.01056 8.71331C9.47195 8.91724 9.86086 9.25597 10.1262 9.685C10.3915 10.114 10.5208 10.6133 10.4972 11.1172C10.4676 11.7388 10.2073 12.3272 9.76724 12.7672C9.32716 13.2073 8.73885 13.4676 8.11719 13.4972Z" fill="white"/>
<path d="M8 12.5C8.82843 12.5 9.5 11.8284 9.5 11C9.5 10.1716 8.82843 9.5 8 9.5C7.17157 9.5 6.5 10.1716 6.5 11C6.5 11.8284 7.17157 12.5 8 12.5Z" fill="white"/>
</svg>
